<svg xmlns="http://www.w3.org/2000/svg" width="300" height="300" viewBox="0 0 512 512" style="">
<path text="EDWARD" fill="#333747" space="preserve" text-anchor="start" offset="0" font-scale="contain" font-size="48" font-family="Ubuntu" transform="matrix(1.069106638431549, 0, 0, 1.069106638431549, 214.97829627990723, 232.03177070617676)" data-fl-textpath="" font-weight="700" font-style="normal" d="M 27.41 0L 3.84 0L 3.84-33.26L 26.3-33.26L 26.3-26.98L 11.33-26.98L 11.33-20.45L 24.62-20.45L 24.62-14.3L 11.33-14.3L 11.33-6.29L 27.41-6.29L 27.41 0ZM 40.418-27.12L 40.418-6.1Q 40.948-6.05  41.638000000000005-6.02Q 42.338-6  43.298-6L 43.298-6Q 48.908-6  51.628-8.83Q 54.338-11.66  54.338-16.66L 54.338-16.66Q 54.338-21.89  51.748000000000005-24.58Q 49.147999999999996-27.26  43.538-27.26L 43.538-27.26Q 42.768-27.26  41.948-27.24Q 41.138000000000005-27.22  40.418-27.12L 40.418-27.12ZM 62.068-16.66L 62.068-16.66Q 62.068-12.34  60.718-9.12Q 59.378-5.9  56.908-3.79Q 54.428-1.68  50.878-0.62Q 47.328 0.43  42.908 0.43L 42.908 0.43Q 40.898 0.43  38.208 0.26Q 35.518 0.1  32.928-0.43L 32.928-0.43L 32.928-32.83Q 35.518-33.31  38.328-33.48Q 41.138000000000005-33.65  43.148-33.65L 43.148-33.65Q 47.428-33.65  50.908-32.69Q 54.388000000000005-31.73  56.878-29.66Q 59.378-27.6  60.718-24.38Q 62.068-21.17  62.068-16.66ZM 83.764-29.71L 90.14399999999999-29.71Q 90.72399999999999-27.74  91.41399999999999-25.27Q 92.11399999999999-22.8  92.904-20.16Q 93.69399999999999-17.52  94.514-14.88Q 95.324-12.24  96.094-9.98L 96.094-9.98Q 96.72399999999999-12.43  97.364-15.31Q 98.014-18.19  98.594-21.26Q 99.16399999999999-24.34  99.72399999999999-27.38Q 100.274-30.43  100.75399999999999-33.26L 100.75399999999999-33.26L 108.524-33.26Q 106.844-24.91  104.66399999999999-16.32Q 102.484-7.73  99.934 0L 99.934 0L 93.074 0Q 91.39399999999999-4.61  89.804-9.67Q 88.22399999999999-14.74  86.684-19.82L 86.684-19.82Q 85.154-14.74  83.61399999999999-9.67Q 82.084-4.61  80.404 0L 80.404 0L 73.53399999999999 0Q 70.994-7.73  68.804-16.32Q 66.624-24.91  64.94399999999999-33.26L 64.94399999999999-33.26L 73.054-33.26Q 73.53399999999999-30.43  74.11399999999999-27.38Q 74.684-24.34  75.314-21.26Q 75.934-18.19  76.58399999999999-15.31Q 77.234-12.43  77.904-9.98L 77.904-9.98Q 78.764-12.34  79.58399999999999-14.98Q 80.404-17.62  81.16399999999999-20.26Q 81.934-22.9  82.584-25.34Q 83.234-27.79  83.764-29.71L 83.764-29.71ZM 141.698 0L 133.678 0Q 133.148-1.73  132.508-3.55Q 131.858-5.38  131.228-7.2L 131.228-7.2L 118.268-7.2Q 117.648-5.38  116.99799999999999-3.55Q 116.348-1.73  115.828 0L 115.828 0L 108.048 0Q 109.91799999999999-5.38  111.598-9.94Q 113.27799999999999-14.5  114.888-18.53Q 116.49799999999999-22.56  118.05799999999999-26.18Q 119.618-29.81  121.298-33.26L 121.298-33.26L 128.448-33.26Q 130.078-29.81  131.668-26.18Q 133.248-22.56  134.858-18.53Q 136.468-14.5  138.148-9.94Q 139.828-5.38  141.698 0L 141.698 0ZM 124.708-25.73L 124.708-25.73Q 124.46799999999999-25.01  123.988-23.76Q 123.508-22.51  122.878-20.88Q 122.258-19.25  121.508-17.28Q 120.768-15.31  119.99799999999999-13.15L 119.99799999999999-13.15L 129.458-13.15Q 128.688-15.31  127.96799999999999-17.28Q 127.24799999999999-19.25  126.598-20.88Q 125.948-22.51  125.46799999999999-23.76Q 124.988-25.01  124.708-25.73ZM 155.756-33.65L 155.756-33.65Q 163.24599999999998-33.65  167.236-30.98Q 171.21599999999998-28.32  171.21599999999998-22.7L 171.21599999999998-22.7Q 171.21599999999998-19.2  169.606-17.02Q 167.99599999999998-14.83  164.976-13.58L 164.976-13.58Q 165.986-12.34  167.08599999999998-10.73Q 168.196-9.12  169.27599999999998-7.37Q 170.356-5.62  171.356-3.72Q 172.36599999999999-1.82  173.236 0L 173.236 0L 164.83599999999998 0Q 163.916-1.63  162.986-3.31Q 162.046-4.99  161.06599999999997-6.58Q 160.076-8.16  159.11599999999999-9.58Q 158.15599999999998-10.99  157.196-12.14L 157.196-12.14L 153.506-12.14L 153.506 0L 146.016 0L 146.016-32.78Q 148.46599999999998-33.26  151.076-33.46Q 153.696-33.65  155.756-33.65ZM 156.196-27.26L 156.196-27.26Q 155.37599999999998-27.26  154.726-27.22Q 154.076-27.17  153.506-27.12L 153.506-27.12L 153.506-18.1L 155.61599999999999-18.1Q 159.83599999999998-18.1  161.666-19.15Q 163.486-20.21  163.486-22.75L 163.486-22.75Q 163.486-25.2  161.636-26.23Q 159.796-27.26  156.196-27.26ZM 185.522-27.12L 185.522-6.1Q 186.05199999999996-6.05  186.742-6.02Q 187.44199999999998-6  188.402-6L 188.402-6Q 194.01199999999997-6  196.73199999999997-8.83Q 199.44199999999998-11.66  199.44199999999998-16.66L 199.44199999999998-16.66Q 199.44199999999998-21.89  196.85199999999998-24.58Q 194.25199999999998-27.26  188.64199999999997-27.26L 188.64199999999997-27.26Q 187.87199999999999-27.26  187.05199999999996-27.24Q 186.242-27.22  185.522-27.12L 185.522-27.12ZM 207.17199999999997-16.66L 207.17199999999997-16.66Q 207.17199999999997-12.34  205.82199999999997-9.12Q 204.48199999999997-5.9  202.01199999999997-3.79Q 199.53199999999998-1.68  195.98199999999997-0.62Q 192.432 0.43  188.01199999999997 0.43L 188.01199999999997 0.43Q 186.00199999999998 0.43  183.31199999999998 0.26Q 180.62199999999999 0.1  178.03199999999998-0.43L 178.03199999999998-0.43L 178.03199999999998-32.83Q 180.62199999999999-33.31  183.432-33.48Q 186.242-33.65  188.25199999999998-33.65L 188.25199999999998-33.65Q 192.53199999999998-33.65  196.01199999999997-32.69Q 199.492-31.73  201.98199999999997-29.66Q 204.48199999999997-27.6  205.82199999999997-24.38Q 207.17199999999997-21.17  207.17199999999997-16.66Z">
</path>
<g transform="matrix(0.6941948495805264, 0, 0, 0.6941948495805264, 53.678646832704544, 84.50824737548828)"><g transform="matrix(1.953158974647522, 0, 0, 1.953158974647522, 27.580556869506836, 124.99699401855469)" fill="#333747"><path d="M53.6 15.2c-1-4.4 2.8-8.2 7.2-7.2c2.2 0.5 4 2.3 4.5 4.5c1 4.4-2.8 8.2-7.2 7.2C55.9 19.2 54.1 17.4 53.6 15.2z M77.2 71.3  c-3.4-0.5-6.2 2.4-5.7 5.7c0.3 2.1 2 3.8 4.1 4.1c3.4 0.5 6.2-2.4 5.7-5.7C81.1 73.4 79.3 71.6 77.2 71.3z M50.2 42.5  c-4.1 0-7.5 3.4-7.5 7.5s3.4 7.5 7.5 7.5s7.5-3.4 7.5-7.5S54.3 42.5 50.2 42.5z M81 50c7.4 8.3 10.5 16.5 7.3 22  c-1 1.8-2.7 3.2-4.8 4.2c0-1.1-0.3-2.1-0.7-3c1.3-0.7 2.3-1.6 3-2.7c2.5-4.3-0.4-11.1-6.7-18.3c-2.9 3-6.3 5.9-10 8.6  c-0.5 4.7-1.3 9.1-2.4 13c1.1 0.2 2.2 0.4 3.2 0.6c-0.2 0.6-0.3 1.2-0.3 1.9c0 0.4 0 0.8 0.1 1.1c-1.3-0.2-2.6-0.4-3.9-0.7  C62.1 87.3 56.6 94 50.2 94c-6.4 0-11.9-6.7-15.4-17.3c-1.4 0.3-2.8 0.5-4.1 0.7c-1.8 0.2-3.5 0.3-5.1 0.3c-6.6 0-11.3-2-13.5-5.7  c-1.2-2.1-1.5-4.6-1-7.3c0.8 0.6 1.8 1 2.9 1c-0.2 1.8 0 3.5 0.8 4.8c2 3.5 7.7 4.9 15.6 3.9c1.2-0.2 2.4-0.4 3.6-0.6  c-1.1-3.9-1.9-8.3-2.4-13c-3.8-2.7-7.1-5.6-10.1-8.6c-0.8 0.9-1.6 1.9-2.3 2.8c-0.1 0.2-0.2 0.3-0.4 0.5c-0.6-0.6-1.3-1-2-1.3  c-0.1-0.3-0.1-0.4-0.2-0.7c0.9-1.2 1.8-2.3 2.8-3.5c-1-1.1-1.9-2.1-2.7-3.2C11 39.3 9.4 32.7 12.1 28c2.7-4.7 9.3-6.6 18.6-5.4  c1.3 0.2 2.7 0.4 4.1 0.7C38.2 12.7 43.8 6 50.2 6c1.6 0 3.2 0.4 4.7 1.3c-0.9 0.6-1.6 1.4-2.2 2.2C51.9 9.2 51 9 50.2 9  c-4.9 0-9.5 5.9-12.5 15c4 1 8.2 2.5 12.5 4.4c4.2-1.9 8.5-3.4 12.5-4.4c-0.3-0.8-0.6-1.7-0.9-2.5c1-0.3 1.9-0.8 2.7-1.4  c0.4 1 0.8 2.1 1.2 3.2c1.4-0.3 2.8-0.5 4.1-0.7c9.3-1.2 15.9 0.7 18.6 5.4c2.7 4.7 1.1 11.3-4.6 18.8C82.9 47.8 82 48.9 81 50z   M66.5 26.2c1.1 3.9 1.9 8.3 2.4 13c3.8 2.8 7.2 5.7 10.1 8.6c0.8-0.9 1.6-1.9 2.3-2.8c4.8-6.3 6.4-12 4.4-15.5  c-1.6-2.8-5.5-4.2-10.9-4.2c-1.4 0-3 0.1-4.7 0.3C68.9 25.7 67.7 25.9 66.5 26.2z M53.8 30.1c2 1 4 2.1 6 3.2c2 1.2 3.9 2.3 5.7 3.6  c-0.5-3.6-1.2-6.9-2-10C60.4 27.7 57.1 28.7 53.8 30.1z M66 40.8c-2.4-1.7-5-3.4-7.7-5c-2.7-1.6-5.4-3-8.1-4.2  c-2.7 1.2-5.4 2.7-8.1 4.2c-2.7 1.6-5.3 3.2-7.7 4.9c-0.3 3-0.4 6-0.4 9.2c0 3.1 0.2 6.2 0.4 9.2c2.4 1.7 5 3.4 7.7 4.9  c2.7 1.6 5.4 3 8.1 4.2c2.7-1.2 5.4-2.7 8.1-4.2c2.7-1.6 5.3-3.2 7.7-4.9c0.3-3 0.4-6 0.4-9.2C66.5 46.9 66.3 43.8 66 40.8z   M36.8 26.8c-0.9 3.1-1.5 6.4-2 10c1.8-1.2 3.8-2.4 5.7-3.6c2-1.1 4-2.2 6-3.2C43.2 28.7 40 27.6 36.8 26.8z M19.1 45  c0.7 0.9 1.5 1.9 2.3 2.8c2.9-3 6.3-5.9 10.1-8.6c0.5-4.7 1.3-9.1 2.4-13c-1.2-0.3-2.4-0.5-3.6-0.6c-1.7-0.2-3.2-0.3-4.7-0.3  c-5.4 0-9.3 1.5-10.9 4.2C12.6 33 14.2 38.6 19.1 45z M31.1 56.8c-0.1-2.2-0.2-4.5-0.2-6.8c0-2.3 0.1-4.6 0.2-6.8  c-2.8 2.2-5.4 4.5-7.7 6.8C25.7 52.3 28.3 54.6 31.1 56.8z M36.8 73.2c3.1-0.8 6.4-1.9 9.7-3.2c-2-1-4-2.1-6-3.2  c-2-1.1-3.9-2.3-5.7-3.6C35.3 66.7 36 70.1 36.8 73.2z M62.7 76c-4-1-8.2-2.5-12.5-4.4c-4.3 1.9-8.5 3.4-12.5 4.4  c3 9.1 7.5 15 12.5 15C55.1 91 59.6 85.1 62.7 76z M65.6 63.1c-1.8 1.2-3.8 2.4-5.7 3.6c-2 1.1-4 2.2-6 3.2c3.3 1.3 6.6 2.4 9.7 3.2  C64.4 70.1 65.1 66.7 65.6 63.1z M76.9 50c-2.2-2.3-4.8-4.6-7.7-6.8c0.1 2.2 0.2 4.5 0.2 6.8c0 2.3-0.1 4.6-0.2 6.8  C72.1 54.6 74.6 52.3 76.9 50z M13.8 63.7c2.7 0.4 5-1.9 4.6-4.6c-0.3-1.7-1.6-3.1-3.3-3.3c-2.7-0.4-5 1.9-4.6 4.6  C10.8 62.1 12.1 63.4 13.8 63.7z" transform="matrix(1, 0, 0, 1, 0, 0)" fill="#333747"></path></g>
<path transform="matrix(0.16042782366275787, 0, 0, 0.16042782366275787, 117.3463363647461, 214.6293182373047)" data-type="circle" data-cx="50" data-cy="50" data-r="50" d="M50 50m-50 0a50 50 0 1 0 100 0a50 50 0 1 0 -100 0" fill="#40bf8e"></path><path transform="matrix(0.08217416703701019, 0, 0, 0.08217416703701019, 172.4744415283203, 269.7574462890625)" fill="#40bf8e" data-type="circle" data-cx="50" data-cy="50" data-r="50" d="M50 50m-50 0a50 50 0 1 0 100 0a50 50 0 1 0 -100 0"></path><path transform="matrix(0.11053752154111862, 0, 0, 0.11053752154111862, 138.0159454345703, 146.51744079589844)" fill="#40bf8e" data-type="circle" data-cx="50" data-cy="50" data-r="50" d="M50 50m-50 0a50 50 0 1 0 100 0a50 50 0 1 0 -100 0"></path><path transform="matrix(0.06109251454472542, 0, 0, 0.06109251454472542, 52.60169982910156, 238.7217559814453)" fill="#40bf8e" data-type="circle" data-cx="50" data-cy="50" data-r="50" d="M50 50m-50 0a50 50 0 1 0 100 0a50 50 0 1 0 -100 0"></path></g><path text="TAN" fill="#333747" space="preserve" text-anchor="start" offset="0" font-scale="contain" font-size="48" font-family="Ubuntu" transform="matrix(1.069106638431549, 0, 0, 1.069106638431549, 214.97829627990723, 281.7819480895996)" data-fl-textpath="" font-weight="700" font-style="normal" d="M 0.96-33.26L 28.51-33.26L 28.51-26.88L 18.48-26.88L 18.48 0L 10.99 0L 10.99-26.88L 0.96-26.88L 0.96-33.26ZM 59.666000000000004 0L 51.646 0Q 51.116-1.73  50.476-3.55Q 49.826-5.38  49.196-7.2L 49.196-7.2L 36.236000000000004-7.2Q 35.616-5.38  34.966-3.55Q 34.316-1.73  33.796 0L 33.796 0L 26.016000000000002 0Q 27.886000000000003-5.38  29.566000000000003-9.94Q 31.246000000000002-14.5  32.856-18.53Q 34.466-22.56  36.026-26.18Q 37.586-29.81  39.266000000000005-33.26L 39.266000000000005-33.26L 46.416-33.26Q 48.04600000000001-29.81  49.636-26.18Q 51.216-22.56  52.826-18.53Q 54.436-14.5  56.116-9.94Q 57.796-5.38  59.666000000000004 0L 59.666000000000004 0ZM 42.676-25.73L 42.676-25.73Q 42.436-25.01  41.956-23.76Q 41.476-22.51  40.846000000000004-20.88Q 40.226-19.25  39.476-17.28Q 38.736000000000004-15.31  37.966-13.15L 37.966-13.15L 47.426-13.15Q 46.656000000000006-15.31  45.936-17.28Q 45.216-19.25  44.566-20.88Q 43.916-22.51  43.436-23.76Q 42.956-25.01  42.676-25.73ZM 92.59400000000001 0L 86.304 0Q 83.084-5.71  79.34400000000001-11.28Q 75.60400000000001-16.85  71.37400000000001-21.79L 71.37400000000001-21.79L 71.37400000000001 0L 63.98400000000001 0L 63.98400000000001-33.26L 70.084-33.26Q 71.664-31.68  73.584-29.38Q 75.504-27.07  77.494-24.46Q 79.48400000000001-21.84  81.45400000000001-19.03Q 83.424-16.22  85.15400000000001-13.63L 85.15400000000001-13.63L 85.15400000000001-33.26L 92.59400000000001-33.26L 92.59400000000001 0Z"></path></svg>