<?xml version="1.0" encoding="utf-8"?>
<svg viewBox="0 0 366.515 129.886" xmlns="http://www.w3.org/2000/svg">
  <path text="EDWARD" fill="#333747" space="preserve" text-anchor="start" offset="0" font-scale="contain" font-size="48" font-family="Ubuntu" data-fl-textpath="" font-weight="700" font-style="normal" d="M 165.78 58.802 L 140.581 58.802 L 140.581 23.243 L 164.594 23.243 L 164.594 29.957 L 148.589 29.957 L 148.589 36.938 L 162.798 36.938 L 162.798 43.513 L 148.589 43.513 L 148.589 52.077 L 165.78 52.077 L 165.78 58.802 Z M 179.687 29.807 L 179.687 52.28 C 180.065 52.316 180.5 52.344 180.992 52.366 C 181.49 52.38 182.082 52.387 182.766 52.387 C 186.765 52.387 189.733 51.378 191.672 49.361 C 193.603 47.344 194.569 44.554 194.569 40.99 C 194.569 37.263 193.646 34.44 191.8 32.523 C 189.947 30.613 187.021 29.658 183.023 29.658 C 182.474 29.658 181.907 29.665 181.323 29.679 C 180.746 29.693 180.2 29.736 179.687 29.807 Z M 202.833 40.99 C 202.833 44.069 202.352 46.756 201.39 49.051 C 200.435 51.346 199.077 53.246 197.317 54.75 C 195.549 56.253 193.4 57.383 190.87 58.139 C 188.34 58.887 185.5 59.261 182.349 59.261 C 180.917 59.261 179.242 59.201 177.325 59.08 C 175.407 58.965 173.526 58.72 171.68 58.342 L 171.68 23.703 C 173.526 23.361 175.45 23.129 177.453 23.008 C 179.456 22.887 181.173 22.826 182.606 22.826 C 185.656 22.826 188.422 23.168 190.902 23.852 C 193.383 24.537 195.51 25.616 197.285 27.092 C 199.067 28.56 200.435 30.442 201.39 32.737 C 202.352 35.025 202.833 37.776 202.833 40.99 Z M 226.029 27.038 L 232.85 27.038 C 233.263 28.442 233.716 30.025 234.207 31.785 C 234.706 33.546 235.237 35.367 235.8 37.248 C 236.363 39.13 236.937 41.012 237.522 42.893 C 238.099 44.775 238.662 46.521 239.211 48.132 C 239.66 46.386 240.112 44.486 240.569 42.434 C 241.032 40.381 241.47 38.26 241.884 36.072 C 242.29 33.877 242.693 31.696 243.092 29.529 C 243.484 27.356 243.851 25.26 244.193 23.243 L 252.5 23.243 C 251.302 29.194 249.927 35.231 248.373 41.354 C 246.819 47.476 245.134 53.292 243.316 58.802 L 235.982 58.802 C 234.785 55.516 233.619 52.07 232.486 48.463 C 231.36 44.85 230.248 41.233 229.151 37.612 C 228.06 41.233 226.966 44.85 225.868 48.463 C 224.778 52.07 223.634 55.516 222.437 58.802 L 215.092 58.802 C 213.281 53.292 211.596 47.476 210.035 41.354 C 208.481 35.231 207.106 29.194 205.908 23.243 L 214.579 23.243 C 214.921 25.26 215.298 27.356 215.712 29.529 C 216.118 31.696 216.546 33.877 216.995 36.072 C 217.437 38.26 217.889 40.381 218.353 42.434 C 218.816 44.486 219.286 46.386 219.764 48.132 C 220.377 46.45 220.975 44.668 221.56 42.786 C 222.144 40.905 222.707 39.023 223.249 37.141 C 223.798 35.26 224.304 33.449 224.767 31.71 C 225.231 29.964 225.651 28.407 226.029 27.038 Z M 287.966 58.802 L 279.392 58.802 C 279.014 57.568 278.597 56.303 278.141 55.006 C 277.678 53.702 277.222 52.401 276.773 51.104 L 262.917 51.104 C 262.475 52.401 262.023 53.702 261.559 55.006 C 261.096 56.303 260.679 57.568 260.309 58.802 L 251.991 58.802 C 253.324 54.967 254.589 51.425 255.786 48.175 C 256.984 44.925 258.156 41.863 259.304 38.991 C 260.451 36.119 261.581 33.392 262.693 30.812 C 263.805 28.225 264.959 25.702 266.157 23.243 L 273.801 23.243 C 274.963 25.702 276.11 28.225 277.243 30.812 C 278.369 33.392 279.506 36.119 280.654 38.991 C 281.801 41.863 282.974 44.925 284.171 48.175 C 285.368 51.425 286.634 54.967 287.966 58.802 Z M 269.802 31.293 C 269.631 31.807 269.375 32.509 269.033 33.4 C 268.69 34.29 268.295 35.317 267.846 36.479 C 267.404 37.64 266.916 38.923 266.381 40.327 C 265.854 41.731 265.316 43.203 264.767 44.743 L 274.881 44.743 C 274.332 43.203 273.801 41.731 273.288 40.327 C 272.774 38.923 272.286 37.64 271.823 36.479 C 271.36 35.317 270.957 34.29 270.615 33.4 C 270.273 32.509 270.002 31.807 269.802 31.293 Z M 302.996 22.826 C 308.334 22.826 312.425 23.778 315.269 25.681 C 318.106 27.576 319.524 30.527 319.524 34.533 C 319.524 37.027 318.951 39.052 317.803 40.605 C 316.656 42.166 315.006 43.392 312.853 44.283 C 313.573 45.167 314.325 46.183 315.109 47.33 C 315.9 48.478 316.68 49.675 317.45 50.922 C 318.22 52.17 318.961 53.47 319.674 54.824 C 320.394 56.179 321.064 57.504 321.684 58.802 L 312.703 58.802 C 312.048 57.64 311.388 56.46 310.726 55.263 C 310.056 54.065 309.371 52.9 308.673 51.767 C 307.967 50.641 307.272 49.572 306.588 48.559 C 305.904 47.555 305.22 46.642 304.535 45.823 L 300.59 45.823 L 300.59 58.802 L 292.583 58.802 L 292.583 23.756 C 294.329 23.414 296.132 23.172 297.993 23.029 C 299.86 22.894 301.528 22.826 302.996 22.826 Z M 303.466 29.658 C 302.882 29.658 302.358 29.672 301.895 29.7 C 301.431 29.736 300.997 29.772 300.59 29.807 L 300.59 39.451 L 302.846 39.451 C 305.854 39.451 308.01 39.077 309.314 38.328 C 310.612 37.573 311.26 36.29 311.26 34.479 C 311.26 32.733 310.601 31.493 309.282 30.759 C 307.971 30.025 306.032 29.658 303.466 29.658 Z M 334.819 29.807 L 334.819 52.28 C 335.197 52.316 335.631 52.344 336.123 52.366 C 336.622 52.38 337.214 52.387 337.898 52.387 C 341.896 52.387 344.865 51.378 346.804 49.361 C 348.735 47.344 349.701 44.554 349.701 40.99 C 349.701 37.263 348.778 34.44 346.932 32.523 C 345.079 30.613 342.153 29.658 338.155 29.658 C 337.606 29.658 337.039 29.665 336.455 29.679 C 335.877 29.693 335.332 29.736 334.819 29.807 Z M 357.965 40.99 C 357.965 44.069 357.484 46.756 356.522 49.051 C 355.567 51.346 354.209 53.246 352.449 54.75 C 350.681 56.253 348.532 57.383 346.002 58.139 C 343.472 58.887 340.631 59.261 337.481 59.261 C 336.048 59.261 334.374 59.201 332.456 59.08 C 330.539 58.965 328.657 58.72 326.811 58.342 L 326.811 23.703 C 328.657 23.361 330.582 23.129 332.585 23.008 C 334.587 22.887 336.305 22.826 337.738 22.826 C 340.788 22.826 343.554 23.168 346.034 23.852 C 348.514 24.537 350.642 25.616 352.416 27.092 C 354.198 28.56 355.567 30.442 356.522 32.737 C 357.484 35.025 357.965 37.776 357.965 40.99 Z"/>
  <g transform="matrix(0.694195, 0, 0, 0.694195, -24.823715, -88.721672)">
    <g transform="matrix(1.953158974647522, 0, 0, 1.953158974647522, 27.580556869506836, 124.99699401855469)" fill="#333747">
      <path d="M53.6 15.2c-1-4.4 2.8-8.2 7.2-7.2c2.2 0.5 4 2.3 4.5 4.5c1 4.4-2.8 8.2-7.2 7.2C55.9 19.2 54.1 17.4 53.6 15.2z M77.2 71.3  c-3.4-0.5-6.2 2.4-5.7 5.7c0.3 2.1 2 3.8 4.1 4.1c3.4 0.5 6.2-2.4 5.7-5.7C81.1 73.4 79.3 71.6 77.2 71.3z M50.2 42.5  c-4.1 0-7.5 3.4-7.5 7.5s3.4 7.5 7.5 7.5s7.5-3.4 7.5-7.5S54.3 42.5 50.2 42.5z M81 50c7.4 8.3 10.5 16.5 7.3 22  c-1 1.8-2.7 3.2-4.8 4.2c0-1.1-0.3-2.1-0.7-3c1.3-0.7 2.3-1.6 3-2.7c2.5-4.3-0.4-11.1-6.7-18.3c-2.9 3-6.3 5.9-10 8.6  c-0.5 4.7-1.3 9.1-2.4 13c1.1 0.2 2.2 0.4 3.2 0.6c-0.2 0.6-0.3 1.2-0.3 1.9c0 0.4 0 0.8 0.1 1.1c-1.3-0.2-2.6-0.4-3.9-0.7  C62.1 87.3 56.6 94 50.2 94c-6.4 0-11.9-6.7-15.4-17.3c-1.4 0.3-2.8 0.5-4.1 0.7c-1.8 0.2-3.5 0.3-5.1 0.3c-6.6 0-11.3-2-13.5-5.7  c-1.2-2.1-1.5-4.6-1-7.3c0.8 0.6 1.8 1 2.9 1c-0.2 1.8 0 3.5 0.8 4.8c2 3.5 7.7 4.9 15.6 3.9c1.2-0.2 2.4-0.4 3.6-0.6  c-1.1-3.9-1.9-8.3-2.4-13c-3.8-2.7-7.1-5.6-10.1-8.6c-0.8 0.9-1.6 1.9-2.3 2.8c-0.1 0.2-0.2 0.3-0.4 0.5c-0.6-0.6-1.3-1-2-1.3  c-0.1-0.3-0.1-0.4-0.2-0.7c0.9-1.2 1.8-2.3 2.8-3.5c-1-1.1-1.9-2.1-2.7-3.2C11 39.3 9.4 32.7 12.1 28c2.7-4.7 9.3-6.6 18.6-5.4  c1.3 0.2 2.7 0.4 4.1 0.7C38.2 12.7 43.8 6 50.2 6c1.6 0 3.2 0.4 4.7 1.3c-0.9 0.6-1.6 1.4-2.2 2.2C51.9 9.2 51 9 50.2 9  c-4.9 0-9.5 5.9-12.5 15c4 1 8.2 2.5 12.5 4.4c4.2-1.9 8.5-3.4 12.5-4.4c-0.3-0.8-0.6-1.7-0.9-2.5c1-0.3 1.9-0.8 2.7-1.4  c0.4 1 0.8 2.1 1.2 3.2c1.4-0.3 2.8-0.5 4.1-0.7c9.3-1.2 15.9 0.7 18.6 5.4c2.7 4.7 1.1 11.3-4.6 18.8C82.9 47.8 82 48.9 81 50z   M66.5 26.2c1.1 3.9 1.9 8.3 2.4 13c3.8 2.8 7.2 5.7 10.1 8.6c0.8-0.9 1.6-1.9 2.3-2.8c4.8-6.3 6.4-12 4.4-15.5  c-1.6-2.8-5.5-4.2-10.9-4.2c-1.4 0-3 0.1-4.7 0.3C68.9 25.7 67.7 25.9 66.5 26.2z M53.8 30.1c2 1 4 2.1 6 3.2c2 1.2 3.9 2.3 5.7 3.6  c-0.5-3.6-1.2-6.9-2-10C60.4 27.7 57.1 28.7 53.8 30.1z M66 40.8c-2.4-1.7-5-3.4-7.7-5c-2.7-1.6-5.4-3-8.1-4.2  c-2.7 1.2-5.4 2.7-8.1 4.2c-2.7 1.6-5.3 3.2-7.7 4.9c-0.3 3-0.4 6-0.4 9.2c0 3.1 0.2 6.2 0.4 9.2c2.4 1.7 5 3.4 7.7 4.9  c2.7 1.6 5.4 3 8.1 4.2c2.7-1.2 5.4-2.7 8.1-4.2c2.7-1.6 5.3-3.2 7.7-4.9c0.3-3 0.4-6 0.4-9.2C66.5 46.9 66.3 43.8 66 40.8z   M36.8 26.8c-0.9 3.1-1.5 6.4-2 10c1.8-1.2 3.8-2.4 5.7-3.6c2-1.1 4-2.2 6-3.2C43.2 28.7 40 27.6 36.8 26.8z M19.1 45  c0.7 0.9 1.5 1.9 2.3 2.8c2.9-3 6.3-5.9 10.1-8.6c0.5-4.7 1.3-9.1 2.4-13c-1.2-0.3-2.4-0.5-3.6-0.6c-1.7-0.2-3.2-0.3-4.7-0.3  c-5.4 0-9.3 1.5-10.9 4.2C12.6 33 14.2 38.6 19.1 45z M31.1 56.8c-0.1-2.2-0.2-4.5-0.2-6.8c0-2.3 0.1-4.6 0.2-6.8  c-2.8 2.2-5.4 4.5-7.7 6.8C25.7 52.3 28.3 54.6 31.1 56.8z M36.8 73.2c3.1-0.8 6.4-1.9 9.7-3.2c-2-1-4-2.1-6-3.2  c-2-1.1-3.9-2.3-5.7-3.6C35.3 66.7 36 70.1 36.8 73.2z M62.7 76c-4-1-8.2-2.5-12.5-4.4c-4.3 1.9-8.5 3.4-12.5 4.4  c3 9.1 7.5 15 12.5 15C55.1 91 59.6 85.1 62.7 76z M65.6 63.1c-1.8 1.2-3.8 2.4-5.7 3.6c-2 1.1-4 2.2-6 3.2c3.3 1.3 6.6 2.4 9.7 3.2  C64.4 70.1 65.1 66.7 65.6 63.1z M76.9 50c-2.2-2.3-4.8-4.6-7.7-6.8c0.1 2.2 0.2 4.5 0.2 6.8c0 2.3-0.1 4.6-0.2 6.8  C72.1 54.6 74.6 52.3 76.9 50z M13.8 63.7c2.7 0.4 5-1.9 4.6-4.6c-0.3-1.7-1.6-3.1-3.3-3.3c-2.7-0.4-5 1.9-4.6 4.6  C10.8 62.1 12.1 63.4 13.8 63.7z" transform="matrix(1, 0, 0, 1, 0, 0)" fill="#333747"/>
    </g>
    <path transform="matrix(0.16042782366275787, 0, 0, 0.16042782366275787, 117.3463363647461, 214.6293182373047)" data-type="circle" data-cx="50" data-cy="50" data-r="50" d="M50 50m-50 0a50 50 0 1 0 100 0a50 50 0 1 0 -100 0" fill="#40bf8e"/>
    <path transform="matrix(0.08217416703701019, 0, 0, 0.08217416703701019, 172.4744415283203, 269.7574462890625)" fill="#40bf8e" data-type="circle" data-cx="50" data-cy="50" data-r="50" d="M50 50m-50 0a50 50 0 1 0 100 0a50 50 0 1 0 -100 0"/>
    <path transform="matrix(0.11053752154111862, 0, 0, 0.11053752154111862, 138.0159454345703, 146.51744079589844)" fill="#40bf8e" data-type="circle" data-cx="50" data-cy="50" data-r="50" d="M50 50m-50 0a50 50 0 1 0 100 0a50 50 0 1 0 -100 0"/>
    <path transform="matrix(0.06109251454472542, 0, 0, 0.06109251454472542, 52.60169982910156, 238.7217559814453)" fill="#40bf8e" data-type="circle" data-cx="50" data-cy="50" data-r="50" d="M50 50m-50 0a50 50 0 1 0 100 0a50 50 0 1 0 -100 0"/>
  </g>
  <path text="TAN" fill="#333747" space="preserve" text-anchor="start" offset="0" font-scale="contain" font-size="48" font-family="Ubuntu" data-fl-textpath="" font-weight="700" font-style="normal" d="M 137.502 72.993 L 166.956 72.993 L 166.956 79.814 L 156.233 79.814 L 156.233 108.552 L 148.226 108.552 L 148.226 79.814 L 137.502 79.814 L 137.502 72.993 Z M 200.265 108.552 L 191.691 108.552 C 191.313 107.319 190.896 106.054 190.44 104.756 C 189.977 103.452 189.521 102.151 189.072 100.854 L 175.216 100.854 C 174.774 102.151 174.322 103.452 173.858 104.756 C 173.395 106.054 172.978 107.319 172.608 108.552 L 164.29 108.552 C 165.623 104.717 166.888 101.175 168.085 97.925 C 169.283 94.675 170.455 91.614 171.603 88.741 C 172.75 85.869 173.88 83.143 174.992 80.563 C 176.104 77.975 177.258 75.452 178.456 72.993 L 186.1 72.993 C 187.262 75.452 188.409 77.975 189.542 80.563 C 190.668 83.143 191.805 85.869 192.953 88.741 C 194.1 91.614 195.273 94.675 196.47 97.925 C 197.667 101.175 198.933 104.717 200.265 108.552 Z M 182.101 81.044 C 181.93 81.557 181.674 82.259 181.332 83.15 C 180.989 84.041 180.594 85.067 180.145 86.229 C 179.703 87.391 179.215 88.673 178.68 90.078 C 178.153 91.482 177.615 92.953 177.066 94.493 L 187.18 94.493 C 186.631 92.953 186.1 91.482 185.587 90.078 C 185.073 88.673 184.585 87.391 184.122 86.229 C 183.659 85.067 183.256 84.041 182.914 83.15 C 182.572 82.259 182.301 81.557 182.101 81.044 Z M 235.469 108.552 L 228.744 108.552 C 226.449 104.482 223.969 100.462 221.303 96.492 C 218.638 92.522 215.797 88.777 212.783 85.256 L 212.783 108.552 L 204.882 108.552 L 204.882 72.993 L 211.403 72.993 C 212.53 74.119 213.777 75.502 215.145 77.141 C 216.514 78.788 217.907 80.541 219.325 82.401 C 220.744 84.269 222.155 86.204 223.559 88.207 C 224.963 90.209 226.282 92.134 227.515 93.98 L 227.515 72.993 L 235.469 72.993 L 235.469 108.552 Z"/>
</svg>